<?xml version="1.0" encoding="UTF-8"?>
<svg xmlns="http://www.w3.org/2000/svg" xmlns:xlink="http://www.w3.org/1999/xlink" width="182.506" height="110.172" viewBox="0 0 182.506 110.172">
  <defs>
    <clipPath id="clip-path">
      <rect id="Rectangle_1425" data-name="Rectangle 1425" width="182.506" height="110.172" fill="none"></rect>
    </clipPath>
  </defs>
  <g id="Group_13052" data-name="Group 13052" transform="translate(0 0)">
    <g id="Group_13051" data-name="Group 13051" transform="translate(0 0)" clip-path="url(#clip-path)">
      <path id="Path_6284" data-name="Path 6284" d="M29.418,76.006c0,1.151.049,2.3.075,3.451l-.127.2a16.75,16.75,0,0,1-5.9,1.1,12.365,12.365,0,0,1-3.348-.424,7.891,7.891,0,0,1-4.275-2.776,9.289,9.289,0,0,1-1.751-5.778,11.134,11.134,0,0,1,1.273-5.275c1.978-3.351,5.1-4.149,7.954-4.149A12.584,12.584,0,0,1,28.641,63.5l.127.149c-.2,1.5-.25,1.9-.375,3.453l-.2.077a6.966,6.966,0,0,0-4.2-1.528c-3.149,0-5.275,2.152-5.275,6.1,0,1.875.7,5.576,4.573,5.576a7.951,7.951,0,0,0,1.875-.277,35.116,35.116,0,0,0-.2-5.326l.127-.149,4.249-.078.125.152c-.025,1.274-.049,2.525-.049,3.778Z" transform="translate(6.646 29.414)" fill="#002d6f"></path>
      <path id="Path_6285" data-name="Path 6285" d="M46.394,78.76c-1.909,0-2.313.024-3.887.071l-.144-.141c0-.811.025-1.648.025-2.458,0-.907-.025-4.174-.072-4.958-.071-.859-.193-2.268-1.5-2.268a3.256,3.256,0,0,0-1.834.74c.022,4.268.047,5.2.187,8.871l-.14.143c-1.906,0-2.268,0-3.982.071L34.9,78.69c.028-1.531.049-3.055.049-4.578a66.215,66.215,0,0,0-.334-7.466l.144-.165c1.787-.238,2.19-.311,4.029-.695l.238.166-.047,1.311a7.722,7.722,0,0,1,3.813-1.4,3.267,3.267,0,0,1,2.957,1.43c.6.976.621,2.072.646,4.365v1.859c.044,2.337.044,3.005.163,5.1Z" transform="translate(16.327 31.031)" fill="#002d6f"></path>
      <path id="Path_6286" data-name="Path 6286" d="M52.457,72.386c0,1.956-.265,4.127-2.241,4.127a1.922,1.922,0,0,1-1.333-.549c-.406-.4-.861-1.217-.861-3.531a7.149,7.149,0,0,1,.477-3.052,1.977,1.977,0,0,1,1.741-1.071,2,2,0,0,1,1.525.739,5.741,5.741,0,0,1,.693,3.338m4.124.024c0-.93,0-4.792-3.338-6.1a8.522,8.522,0,0,0-2.907-.456c-4.153,0-6.487,2.219-6.487,6.6a7.617,7.617,0,0,0,1.12,4.368c.62.926,1.788,2.215,5.2,2.215,5.054,0,6.411-3.049,6.411-6.628" transform="translate(20.683 31.061)" fill="#002d6f"></path>
      <path id="Path_6287" data-name="Path 6287" d="M72.288,78.76c-1.669,0-2.191,0-3.981.071l-.146-.141c.025-.717.047-4.271.071-5.08,0-.456.026-.907.026-1.358,0-2.052-.218-3.341-1.573-3.341a2.935,2.935,0,0,0-1.647.6l.024,2.409V72.8c.025,2.886.047,3.553.19,5.819l-.143.143c-1.645,0-2.146,0-3.959.1l-.141-.166c.049-1.934.071-2.458.071-5.916,0-2.05-.047-3.743-1.525-3.743a2.93,2.93,0,0,0-1.647.668c.026,4.147.049,5.244.216,8.918l-.144.143c-1.979,0-2.5.024-4.031.071l-.116-.141c0-1.358.022-2.745.022-4.1a64.021,64.021,0,0,0-.333-7.941l.144-.165c1.667-.238,2.191-.334,4.05-.695l.218.218v1.335a6.107,6.107,0,0,1,3.694-1.479,2.891,2.891,0,0,1,2.837,1.55,7.009,7.009,0,0,1,4.221-1.55,3.51,3.51,0,0,1,2.955,1.357c.695,1,.668,2.483.646,4.081v1.788c0,2.693.022,3.311.141,5.532Z" transform="translate(25.246 31.031)" fill="#002d6f"></path>
      <path id="Path_6288" data-name="Path 6288" d="M71.454,70.961A2.841,2.841,0,0,1,72.6,68.649a1.83,1.83,0,0,1,2.478.571,2.9,2.9,0,0,1,.359,1.648Zm7.226,4.271a7.3,7.3,0,0,1-3.72,1.024,3.308,3.308,0,0,1-2.98-1.313,3.365,3.365,0,0,1-.525-1.454l7.7-.143.143-.168a13.817,13.817,0,0,0-.381-3.551,4.608,4.608,0,0,0-3.482-3.578,6.069,6.069,0,0,0-1.692-.215c-3.745,0-6.224,2.456-6.224,6.581a7.868,7.868,0,0,0,.574,3.123c1.382,3.222,4.626,3.506,6.34,3.506a9.2,9.2,0,0,0,4.1-.858L78.68,78l.166-2.695Z" transform="translate(31.849 31.054)" fill="#002d6f"></path>
      <path id="Path_6289" data-name="Path 6289" d="M89.569,79.222c-.284.166-.572.333-.857.475a9.157,9.157,0,0,1-3.865.787c-5.338,0-8.08-4.009-8.08-8.7,0-4.411,2.715-8.845,8.224-8.845a8.682,8.682,0,0,1,4.486,1.046l.115.191a6.221,6.221,0,0,0-.191,1.264l-.165.121a6.773,6.773,0,0,0-4.244-1.313c-4.746,0-6.583,4.055-6.583,7.535,0,4.15,2.67,7.369,6.7,7.369a6.953,6.953,0,0,0,2.646-.527,6.3,6.3,0,0,0,1.859-1.167l.191.121a6.451,6.451,0,0,0-.119,1.405Z" transform="translate(36.211 29.687)" fill="#002d6f"></path>
      <path id="Path_6290" data-name="Path 6290" d="M93.521,71.565v4.793A4.394,4.394,0,0,1,90.4,77.646,2.64,2.64,0,0,1,88.7,72.852c.67-.5,1.43-.692,3.529-1.095ZM87.393,68.2l.19.1a6.285,6.285,0,0,1,3.386-.905c1.667,0,2.193.809,2.339,1.1a4.8,4.8,0,0,1,.213,1.573v.309l-2.1.311a8.2,8.2,0,0,0-4.1,1.454,3.831,3.831,0,0,0-1.239,2.887,3.749,3.749,0,0,0,4.053,3.884,5.574,5.574,0,0,0,3.386-1.191l.024.834.165.143,1.266-.071.144-.166a56.3,56.3,0,0,1-.144-6.107V70.872c0-2.337,0-2.861-.69-3.623a3.96,3.96,0,0,0-3.173-1.123,8.606,8.606,0,0,0-3.529.787l-.118.166Z" transform="translate(40.604 31.191)" fill="#002d6f"></path>
      <path id="Path_6291" data-name="Path 6291" d="M95.715,78.624l-1.41.046-.118-.14c.025-1.311.05-1.91.05-2.936,0-1.239-.025-2.5-.05-3.743a48.484,48.484,0,0,0-.216-5.173l.124-.168,1.456-.24.138.143L95.6,67.654a7.86,7.86,0,0,1,4.314-1.528,3.723,3.723,0,0,1,2.865,1.123c.855.929.855,2.1.88,3.91l.047,2.43c.025,2.5.047,2.887.141,4.89l-.141.144-1.432.046-.116-.165c.024-1.12.046-1.744.046-2.7s-.046-4.29-.1-5.553a3.314,3.314,0,0,0-.568-2,2.693,2.693,0,0,0-2.028-.814,6.422,6.422,0,0,0-3.865,1.6c.025,4.032.047,4.96.216,9.442Z" transform="translate(44.325 31.191)" fill="#002d6f"></path>
      <path id="Path_6292" data-name="Path 6292" d="M109.417,71.565v4.793a4.387,4.387,0,0,1-3.124,1.288,2.642,2.642,0,0,1-1.694-4.795c.668-.5,1.433-.692,3.529-1.095Zm-6.13-3.364.194.1a6.27,6.27,0,0,1,3.383-.905c1.667,0,2.193.809,2.337,1.1a4.8,4.8,0,0,1,.215,1.573v.309l-2.1.311a8.2,8.2,0,0,0-4.1,1.454,3.841,3.841,0,0,0-1.239,2.887,3.751,3.751,0,0,0,4.056,3.884,5.576,5.576,0,0,0,3.385-1.191l.024.834.168.143,1.264-.071.141-.166a57.59,57.59,0,0,1-.141-6.107V70.872c0-2.337,0-2.861-.69-3.623a3.962,3.962,0,0,0-3.174-1.123,8.584,8.584,0,0,0-3.526.787l-.122.166Z" transform="translate(48.101 31.191)" fill="#002d6f"></path>
      <path id="Path_6293" data-name="Path 6293" d="M118.412,78.1a4.327,4.327,0,0,1-3.294,1.451c-2.645,0-4.075-2.168-4.075-4.864a4.69,4.69,0,0,1,2.624-4.553,8.44,8.44,0,0,1,3.383-.547c.6,0,.861.021,1.266.047,0,2.143.071,5.554.1,7.676Zm.024,2.5.143.141a11.357,11.357,0,0,1,1.266-.047l.141-.118c-.19-3.841-.19-8.159-.19-12.237,0-2.143.025-4.289.049-6.462l-.146-.141c-.737.168-.858.191-1.457.286l-.165.146a52.514,52.514,0,0,1,.218,6.224c-.453-.024-.767-.024-1.076-.024-1.738,0-4.221.14-5.888,1.74A6.433,6.433,0,0,0,109.5,74.78c0,3.242,1.931,6.081,5.363,6.081a5.05,5.05,0,0,0,3.578-1.361Z" transform="translate(51.648 29.121)" fill="#002d6f"></path>
      <path id="Path_6294" data-name="Path 6294" d="M125.312,71.565v4.793a4.4,4.4,0,0,1-3.126,1.288,2.639,2.639,0,0,1-1.692-4.795c.665-.5,1.43-.692,3.528-1.095Zm-6.13-3.364.187.1a6.3,6.3,0,0,1,3.389-.905c1.67,0,2.193.809,2.337,1.1a4.83,4.83,0,0,1,.216,1.573v.309l-2.1.311a8.18,8.18,0,0,0-4.1,1.454,3.837,3.837,0,0,0-1.241,2.887,3.747,3.747,0,0,0,4.053,3.884,5.585,5.585,0,0,0,3.388-1.191l.022.834.165.143,1.263-.071.146-.166a57,57,0,0,1-.146-6.107V70.872c0-2.337,0-2.861-.692-3.623a3.943,3.943,0,0,0-3.169-1.123,8.633,8.633,0,0,0-3.532.787l-.116.166Z" transform="translate(55.599 31.191)" fill="#002d6f"></path>
      <path id="Path_6295" data-name="Path 6295" d="M37.4,73.214a10.965,10.965,0,0,0-.356-3.357c-.286-.714-1.6-2.543-4.7-1.38a.264.264,0,0,0-.128.077c-.044.065.032.115.032.115a2.156,2.156,0,0,1,1.3,2.234L29.556,71a3.491,3.491,0,0,1,.389-1.988,5.12,5.12,0,0,1,3.772-2.649,5.506,5.506,0,0,1,1.163-.071c.015,0,.116-.047.016-.1a.606.606,0,0,0-.246-.1,9.531,9.531,0,0,0-2.805-.324c-3.743,0-6.222,2.562-6.222,6.686a7.916,7.916,0,0,0,.57,3.123c1.385,3.223,4.627,3.506,6.344,3.506a9.176,9.176,0,0,0,4.1-.858l.143-.188.166-2.7-.166-.069a7.3,7.3,0,0,1-3.722,1.023,3.306,3.306,0,0,1-2.977-1.313,3.341,3.341,0,0,1-.525-1.453l7.7-.144Z" transform="translate(12.086 31.021)" fill="#002d6f"></path>
      <path id="Path_6296" data-name="Path 6296" d="M18.549,57.347c-.625-.209-1.932-.589-3.288-1.148-3.573-1.47-6.9-3.6-6.818-7.148.082-3.392,3.18-5.5,8.8-6.6,6.153-1.207,15.163-2.121,19.718-4.442,4.492-2.018,4.062-7.216,1.36-9.654-.25-.235-.434-.414-.577-.353-.194.079-.147.237-.069.494a3.97,3.97,0,0,1-.078,3.155c-2.208,3.875-14.53,3.854-25.253,5.921C3.481,39.279-.2,43.5.008,48.114c.213,4.808,4.8,8.422,11.177,9.417a34.04,34.04,0,0,0,7.23.391c.324-.047.418-.159.409-.319-.009-.13-.062-.184-.275-.256" transform="translate(0 13.201)" fill="#e50019"></path>
      <path id="Path_6297" data-name="Path 6297" d="M5.392,46.4a52.119,52.119,0,0,1,9.382-2.13c.653-.106,1.3-.222,1.673-.293a.306.306,0,0,0,.271-.2c.056-.191-.041-.311-.371-.394-.39-.1-1.032-.2-1.538-.33-5-1.177-5.716-2.651-5.744-4.147a2.9,2.9,0,0,1,1.428-2.471,15.7,15.7,0,0,1,5.124-1.788c9.591-2.016,24.053-2.33,24.053-15.307A12.007,12.007,0,0,0,33.665,9.1a13.545,13.545,0,0,0-3.959-1.7v5.1a7.566,7.566,0,0,1,3.014,5.968c0,4.406-1.772,9.211-11.819,11.3-6.314,1.313-10.867,2.221-14.081,3.584s-5.239,3.875-5.5,6.206c-.231,2.1.294,4.929,4.069,6.846" transform="translate(0.602 3.49)" fill="#002d6f"></path>
      <path id="Path_6298" data-name="Path 6298" d="M30.785,36.423A34.946,34.946,0,0,1,22.536,38.9c-.977.194-1.659.3-2.072.38-.334.066-.416.218-.356.384.044.121.147.166.439.234.465.107,1.2.238,2.1.5a9.57,9.57,0,0,1,4.43,2.5,4.859,4.859,0,0,1,1.194,3.323,5.9,5.9,0,0,1-1.451,3.982q-1.971,2.15-6.542,3.534a30.871,30.871,0,0,1-5.94,1.082v4.06c6.055-.337,12.008-1.815,15.335-3.982q5.72-3.711,5.726-9.9A9.84,9.84,0,0,0,33.352,38.7a10.039,10.039,0,0,0-2.567-2.28" transform="translate(6.761 17.181)" fill="#002d6f"></path>
      <path id="Path_6299" data-name="Path 6299" d="M10.578,32.869c2.046-.617,7.464-1.762,7.464-1.762.135-.026.271-.054.286-.194a.232.232,0,0,0-.178-.269,12.621,12.621,0,0,1-3.866-1.631c-2.427-1.594-4.306-3.91-4.188-7.3.156-4.514,3.875-7.36,8.159-8.68,3.884-1.2,7.425-1.722,9.64-3.148,4.2-2.7,3.765-7.172,1.407-9.423-.322-.309-.537-.531-.711-.444-.157.078-.135.269-.044.5a3.9,3.9,0,0,1,.066,3.124c-1.161,2.271-7.557,3.082-12.375,4.109C9.809,9.129,6.361,11.207,3.816,14.349a12,12,0,0,0-2.471,7.366c0,6.2,4.745,9.462,9.233,11.154" transform="translate(0.634 0)" fill="#e50019"></path>
    </g>
  </g>
</svg>
